<svg xmlns="http://www.w3.org/2000/svg" version="1.1" xmlns:xlink="http://www.w3.org/1999/xlink" xmlns:svgjs="http://svgjs.dev/svgjs" width="2000" height="521" viewBox="0 0 2000 521"><g transform="matrix(1,0,0,1,-2.446808510638334,-1.3315537244898792)"><svg viewBox="0 0 376 98" data-background-color="#ffffff" preserveAspectRatio="xMidYMid meet" height="521" width="2000" xmlns="http://www.w3.org/2000/svg" xmlns:xlink="http://www.w3.org/1999/xlink"><g id="tight-bounds" transform="matrix(1,0,0,1,0.46023999999999887,0.2504650000000197)"><svg viewBox="0 0 375.07953 97.49895999999998" height="97.49895999999998" width="375.07953"><g><svg></svg></g><g><svg viewBox="0 0 375.07953 97.49895999999998" height="97.49895999999998" width="375.07953"><g transform="matrix(1,0,0,1,-10.22024,-77.57193000000001)"><path d="M10.22 169.628v-92.056h375.08v92.056h-108.271l0-3.094h105.176v-85.868h-368.89v85.868h105.176l0 3.094z" fill="#0775eb" fill-rule="nonzero" stroke="none" stroke-width="1" stroke-linecap="butt" stroke-linejoin="miter" stroke-miterlimit="10" stroke-dasharray="" stroke-dashoffset="0" font-family="none" font-weight="none" font-size="none" text-anchor="none" style="mix-blend-mode: normal" data-fill-palette-color="tertiary"></path><g><path d="M130.146 166.751v0 4.206l1.061 0.196c0.009 0.044 0.016 0.083 0.021 0.118 0.003 0.035 0.005 0.074 0.005 0.118v0c0 0.044-0.002 0.089-0.005 0.136-0.005 0.049-0.012 0.1-0.021 0.152v0c-0.55-0.026-1.114-0.039-1.69-0.039v0c-0.201 0-0.443 0.003-0.726 0.008-0.285 0.003-0.611 0.01-0.977 0.018v0c-0.026-0.079-0.039-0.162-0.04-0.249v0c0-0.079 0.013-0.166 0.04-0.262v0l1.035-0.144c0.017-0.245 0.031-0.505 0.039-0.781 0.009-0.274 0.013-0.569 0.013-0.883v0-2.791c0-0.577-0.013-1.005-0.039-1.284v0l-1.035-0.131c-0.017-0.044-0.026-0.118-0.027-0.222v0c0-0.044 0-0.087 0-0.131 0-0.044 0.009-0.092 0.027-0.144v0c0.594-0.035 1.345-0.127 2.253-0.276v0c0.079 0.087 0.122 0.175 0.131 0.262v0c-0.044 0.245-0.066 0.952-0.065 2.123zM128.233 162.073v0c-0.017-0.044-0.026-0.09-0.026-0.138 0-0.047 0-0.093 0-0.137v0c0-0.236 0.099-0.426 0.296-0.571 0.196-0.143 0.438-0.215 0.726-0.215v0c0.271 0 0.492 0.08 0.663 0.241 0.169 0.162 0.254 0.383 0.254 0.663v0c0 0.227-0.098 0.411-0.294 0.551-0.197 0.14-0.449 0.21-0.754 0.209v0c-0.21 0-0.395-0.052-0.556-0.157-0.162-0.105-0.266-0.253-0.309-0.446zM137.326 169.345v-2.398c0-0.673-0.089-1.144-0.267-1.415-0.18-0.271-0.48-0.406-0.899-0.406v0c-0.646 0-1.297 0.485-1.953 1.455v0 4.376l1.062 0.196c0.035 0.14 0.035 0.314 0 0.524v0c-0.55-0.026-1.114-0.039-1.69-0.039v0c-0.402 0-0.97 0.009-1.704 0.026v0c-0.052-0.166-0.052-0.336 0-0.511v0l1.035-0.144c0.035-0.48 0.052-1.035 0.053-1.664v0-3.59c0-0.175-0.013-0.336-0.04-0.485v0l-1.035-0.131c-0.035-0.131-0.035-0.297 0-0.498v0c0.603-0.044 1.354-0.135 2.254-0.275v0c0.079 0.087 0.122 0.175 0.131 0.262v0c-0.044 0.227-0.066 0.616-0.066 1.166v0c0.69-0.952 1.467-1.428 2.333-1.428v0c1.354 0 2.031 0.642 2.031 1.926v0 4.665l1.061 0.196c0.035 0.14 0.035 0.314 0 0.524v0c-0.55-0.026-1.114-0.039-1.69-0.039v0c-0.402 0-0.97 0.009-1.704 0.026v0c-0.052-0.166-0.052-0.336 0-0.511v0l1.035-0.144c0.035-0.48 0.052-1.035 0.053-1.664zM142.737 171.311v0c0.472 0 0.821-0.109 1.048-0.328 0.227-0.218 0.341-0.472 0.341-0.76v0c0-0.166-0.026-0.319-0.079-0.459-0.052-0.14-0.137-0.275-0.254-0.406-0.119-0.131-0.274-0.26-0.466-0.388-0.192-0.126-0.432-0.263-0.721-0.411v0c-0.358-0.183-0.666-0.358-0.922-0.524-0.259-0.166-0.471-0.341-0.637-0.524-0.166-0.183-0.29-0.38-0.372-0.59-0.084-0.21-0.126-0.445-0.126-0.707v0c0-0.314 0.057-0.588 0.17-0.82 0.114-0.231 0.273-0.423 0.48-0.577 0.204-0.152 0.446-0.266 0.726-0.341 0.28-0.073 0.59-0.11 0.93-0.11v0c0.681 0 1.345 0.166 1.992 0.498v0 1.677h-0.616l-0.289-1.415c-0.384-0.183-0.79-0.275-1.218-0.275v0c-0.716 0-1.074 0.293-1.074 0.878v0c0 0.314 0.118 0.603 0.353 0.865 0.236 0.262 0.616 0.524 1.14 0.786v0c0.358 0.183 0.673 0.358 0.944 0.524 0.271 0.166 0.495 0.341 0.673 0.524 0.18 0.183 0.315 0.382 0.406 0.595 0.093 0.215 0.139 0.458 0.139 0.728v0c0 0.306-0.066 0.59-0.196 0.852-0.131 0.262-0.314 0.487-0.551 0.673-0.236 0.189-0.52 0.338-0.851 0.449-0.332 0.108-0.699 0.162-1.101 0.162v0c-0.777 0-1.507-0.166-2.188-0.498v0-1.677h0.616l0.288 1.297c0.445 0.201 0.917 0.301 1.415 0.302zM148.345 163.056v0 1.874h1.847c0.017 0.105 0.026 0.183 0.026 0.236v0c0 0.079-0.009 0.17-0.026 0.275v0l-1.847 0.275v3.603c0 0.646 0.059 1.102 0.175 1.368 0.119 0.267 0.305 0.401 0.559 0.401v0c0.227 0 0.581-0.092 1.061-0.275v0c0.087 0.079 0.148 0.227 0.183 0.445v0c-0.262 0.157-0.46 0.273-0.595 0.346-0.136 0.075-0.307 0.141-0.513 0.199-0.204 0.056-0.42 0.084-0.647 0.084v0c-0.437 0-0.792-0.169-1.067-0.506-0.276-0.335-0.414-0.848-0.414-1.538v0-4.284l-0.917-0.118c-0.017-0.087-0.026-0.162-0.026-0.223v0c0-0.07 0.009-0.166 0.026-0.288v0c0.245-0.044 0.456-0.121 0.634-0.231 0.18-0.108 0.331-0.261 0.453-0.458 0.122-0.196 0.216-0.37 0.281-0.525 0.066-0.152 0.148-0.372 0.243-0.66v0c0.079-0.026 0.175-0.039 0.289-0.039v0c0.105 0 0.197 0.013 0.275 0.039zM152.289 169.882v0c0 0.454 0.083 0.775 0.249 0.962 0.166 0.189 0.428 0.283 0.786 0.283v0c0.262 0 0.552-0.081 0.87-0.244 0.32-0.161 0.615-0.394 0.885-0.699v0-2.044c-0.9 0.052-1.59 0.211-2.07 0.477-0.48 0.267-0.721 0.689-0.72 1.265zM155.079 167.668v0-0.668c0-0.742-0.086-1.282-0.256-1.62-0.169-0.335-0.451-0.503-0.844-0.503v0c-0.402 0-0.725 0.128-0.97 0.386-0.245 0.259-0.411 0.698-0.498 1.318v0c-0.28 0.061-0.485 0.092-0.615 0.091v0c-0.341 0-0.542-0.122-0.603-0.367v0c0-0.594 0.258-1.066 0.773-1.415 0.515-0.349 1.157-0.524 1.926-0.524v0c0.847 0 1.447 0.172 1.8 0.517 0.355 0.346 0.532 0.964 0.532 1.855v0 3.695c0 0.218 0.013 0.406 0.039 0.563v0l1.035 0.131c0.035 0.131 0.035 0.297 0 0.498v0c-0.62 0.026-1.28 0.087-1.978 0.183v0c-0.07-0.07-0.114-0.157-0.131-0.262v0l-0.065-0.904c-0.725 0.83-1.533 1.245-2.424 1.245v0c-0.55 0-0.981-0.157-1.292-0.472-0.309-0.314-0.464-0.738-0.464-1.271v0c0-0.804 0.364-1.411 1.093-1.821 0.73-0.411 1.711-0.629 2.942-0.655zM159.089 171.769v0c0.079 0.035 0.144 0.109 0.196 0.223v0c-0.288 0.236-0.432 0.59-0.432 1.061v0c0 0.419 0.192 0.756 0.576 1.009 0.384 0.253 0.882 0.38 1.494 0.38v0c0.629 0 1.153-0.115 1.572-0.346 0.419-0.232 0.629-0.558 0.629-0.977v0c0-0.454-0.083-0.788-0.249-1.001-0.166-0.215-0.498-0.344-0.996-0.388v0l-2.45-0.223c-0.271-0.035-0.496-0.177-0.676-0.427-0.178-0.248-0.267-0.49-0.267-0.726v0l0.878-1.454c-0.402-0.227-0.706-0.528-0.912-0.904-0.204-0.376-0.307-0.76-0.307-1.153v0c0-0.742 0.275-1.341 0.826-1.795 0.55-0.454 1.184-0.681 1.9-0.682v0c0.69 0 1.297 0.183 1.821 0.551v0c0.044-1.197 0.489-1.817 1.336-1.861v0c0.227 0.052 0.341 0.24 0.341 0.563v0c0 0.175-0.017 0.367-0.053 0.577v0c-0.341 0.026-0.62 0.137-0.838 0.333-0.218 0.197-0.376 0.423-0.472 0.676v0c0.437 0.437 0.655 0.983 0.655 1.638v0c0 0.69-0.28 1.264-0.838 1.721-0.559 0.459-1.21 0.689-1.952 0.689v0c-0.393 0-0.747-0.052-1.062-0.157v0l-0.445 1.166 3.262 0.328c0.507 0.061 0.894 0.246 1.161 0.555 0.266 0.311 0.398 0.715 0.398 1.214v0c0 0.873-0.314 1.544-0.943 2.012-0.629 0.466-1.481 0.7-2.555 0.7v0c-0.891 0-1.585-0.162-2.083-0.485-0.498-0.323-0.747-0.756-0.747-1.297v0c0-0.367 0.118-0.692 0.354-0.975 0.236-0.285 0.528-0.466 0.878-0.545zM159.325 166.843v0c0 0.507 0.142 0.939 0.427 1.297 0.283 0.358 0.66 0.537 1.132 0.537v0c0.463 0 0.843-0.177 1.14-0.532 0.297-0.353 0.445-0.787 0.445-1.302v0c0-0.559-0.147-1.025-0.44-1.397-0.292-0.37-0.673-0.556-1.145-0.556v0c-0.445 0-0.817 0.188-1.114 0.564-0.297 0.376-0.445 0.839-0.445 1.389zM167.173 164.628v0l-0.026 1.35c0.218-0.402 0.522-0.771 0.911-1.109 0.388-0.335 0.756-0.503 1.106-0.503v0c0.271 0 0.511 0.031 0.721 0.092v0c0.07 0.114 0.105 0.262 0.105 0.446v0c0 0.288-0.061 0.577-0.184 0.864v0c-0.314-0.087-0.616-0.131-0.904-0.131v0c-0.716 0-1.306 0.349-1.769 1.048v0l-0.026 2.293v1.979l1.455 0.196c0.035 0.14 0.035 0.314 0 0.524v0c-0.55-0.026-1.179-0.039-1.887-0.039v0c-0.533 0-1.166 0.009-1.9 0.026v0c-0.052-0.166-0.052-0.336 0-0.511v0l1.035-0.144c0.035-0.48 0.052-1.035 0.053-1.664v0-3.59c0-0.175-0.013-0.336-0.04-0.485v0l-1.035-0.131c-0.035-0.131-0.035-0.297 0-0.498v0c0.603-0.044 1.354-0.135 2.254-0.275v0c0.079 0.087 0.122 0.175 0.131 0.262zM171.85 169.882v0c0 0.454 0.083 0.775 0.249 0.962 0.166 0.189 0.428 0.283 0.786 0.283v0c0.262 0 0.553-0.081 0.873-0.244 0.318-0.161 0.612-0.394 0.883-0.699v0-2.044c-0.9 0.052-1.59 0.211-2.07 0.477-0.48 0.267-0.721 0.689-0.721 1.265zM174.641 167.668v0-0.668c0-0.742-0.085-1.282-0.254-1.62-0.171-0.335-0.453-0.503-0.847-0.503v0c-0.402 0-0.725 0.128-0.969 0.386-0.245 0.259-0.411 0.698-0.498 1.318v0c-0.28 0.061-0.485 0.092-0.616 0.091v0c-0.341 0-0.542-0.122-0.602-0.367v0c0-0.594 0.258-1.066 0.773-1.415 0.515-0.349 1.157-0.524 1.926-0.524v0c0.847 0 1.448 0.172 1.802 0.517 0.353 0.346 0.529 0.964 0.53 1.855v0 3.695c0 0.218 0.013 0.406 0.039 0.563v0l1.035 0.131c0.035 0.131 0.035 0.297 0 0.498v0c-0.62 0.026-1.28 0.087-1.978 0.183v0c-0.07-0.07-0.114-0.157-0.131-0.262v0l-0.066-0.904c-0.725 0.83-1.533 1.245-2.424 1.245v0c-0.55 0-0.98-0.157-1.289-0.472-0.311-0.314-0.466-0.738-0.466-1.271v0c0-0.804 0.365-1.411 1.095-1.821 0.728-0.411 1.709-0.629 2.94-0.655zM187.193 169.345v-2.398c0-1.214-0.389-1.821-1.166-1.821v0c-0.664 0-1.293 0.459-1.887 1.376v0 4.455l1.061 0.196c0.035 0.14 0.035 0.314 0 0.524v0c-0.55-0.026-1.109-0.039-1.677-0.039v0c-0.402 0-0.97 0.009-1.703 0.026v0c-0.052-0.166-0.052-0.336 0-0.511v0l1.035-0.144c0.035-0.48 0.052-1.035 0.053-1.664v0-2.398c0-1.214-0.389-1.821-1.167-1.821v0c-0.393 0-0.738 0.12-1.035 0.359-0.297 0.241-0.603 0.615-0.917 1.122v0 4.35l1.062 0.196c0.035 0.14 0.035 0.314 0 0.524v0c-0.55-0.026-1.109-0.039-1.678-0.039v0c-0.402 0-0.97 0.009-1.703 0.026v0c-0.052-0.166-0.052-0.336 0-0.511v0l1.035-0.144c0.035-0.48 0.052-1.035 0.053-1.664v0-3.59c0-0.175-0.013-0.336-0.04-0.485v0l-1.035-0.131c-0.035-0.131-0.035-0.297 0-0.498v0c0.585-0.044 1.332-0.135 2.241-0.275v0c0.079 0.087 0.122 0.175 0.131 0.262v0c-0.044 0.227-0.066 0.616-0.066 1.166v0c0.69-0.952 1.467-1.428 2.332-1.428v0c0.454 0 0.869 0.115 1.245 0.346 0.376 0.232 0.616 0.589 0.721 1.069v0c0.699-0.943 1.472-1.415 2.319-1.415v0c0.533 0 1.002 0.157 1.407 0.472 0.407 0.314 0.611 0.799 0.611 1.454v0 4.665l1.061 0.196c0.035 0.14 0.035 0.314 0 0.524v0c-0.55-0.026-1.109-0.039-1.677-0.039v0c-0.402 0-0.97 0.009-1.703 0.026v0c-0.052-0.166-0.052-0.336 0-0.511v0l1.035-0.144c0.035-0.48 0.052-1.035 0.052-1.664zM190.429 173.538v0c-0.192-0.026-0.323-0.153-0.393-0.38v0c0.585-0.323 0.97-0.777 1.153-1.363v0h-0.039c-0.227 0-0.421-0.081-0.582-0.243-0.162-0.161-0.244-0.355-0.244-0.582v0c0-0.227 0.079-0.417 0.236-0.569 0.157-0.154 0.349-0.231 0.577-0.23v0c0.236 0 0.435 0.08 0.597 0.241 0.161 0.162 0.241 0.37 0.241 0.623v0c0 0.568-0.135 1.042-0.406 1.423-0.271 0.379-0.651 0.739-1.14 1.08zM198.356 163.056v0 1.874h1.848c0.017 0.105 0.026 0.183 0.026 0.236v0c0 0.079-0.009 0.17-0.026 0.275v0l-1.848 0.275v3.603c0 0.646 0.059 1.102 0.178 1.368 0.117 0.267 0.302 0.401 0.556 0.401v0c0.227 0 0.581-0.092 1.061-0.275v0c0.087 0.079 0.148 0.227 0.184 0.445v0c-0.262 0.157-0.461 0.273-0.598 0.346-0.135 0.075-0.305 0.141-0.511 0.199-0.204 0.056-0.42 0.084-0.647 0.084v0c-0.437 0-0.793-0.169-1.069-0.506-0.274-0.335-0.411-0.848-0.412-1.538v0-4.284l-0.917-0.118c-0.017-0.087-0.026-0.162-0.026-0.223v0c0-0.07 0.009-0.166 0.026-0.288v0c0.245-0.044 0.456-0.121 0.634-0.231 0.18-0.108 0.331-0.261 0.454-0.458 0.122-0.196 0.217-0.37 0.283-0.525 0.065-0.152 0.145-0.372 0.241-0.66v0c0.079-0.026 0.175-0.039 0.288-0.039v0c0.105 0 0.197 0.013 0.275 0.039zM206.571 167.93v0h-4.114c-0.079 2.227 0.59 3.341 2.005 3.341v0c0.603 0 1.219-0.266 1.847-0.799v0c0.131 0.079 0.231 0.214 0.302 0.406v0c-0.603 0.673-1.367 1.009-2.293 1.009v0c-2.131 0-3.197-1.253-3.197-3.76v0c0-1.188 0.314-2.112 0.943-2.773 0.629-0.659 1.363-0.988 2.201-0.988v0c0.917 0 1.577 0.319 1.979 0.957 0.402 0.638 0.603 1.467 0.602 2.489v0c-0.087 0.07-0.179 0.109-0.275 0.118zM204.239 164.89v0c-0.454 0-0.84 0.236-1.158 0.708-0.32 0.472-0.514 1.074-0.585 1.808v0h1.625c0.646 0 1.109-0.039 1.389-0.118v0c0-0.716-0.109-1.295-0.328-1.737-0.218-0.44-0.533-0.66-0.943-0.661zM209.991 163.318v0 7.639l1.061 0.196c0.035 0.14 0.035 0.314 0 0.524v0c-0.55-0.026-1.114-0.039-1.69-0.039v0c-0.402 0-0.97 0.009-1.703 0.026v0c-0.052-0.166-0.052-0.336 0-0.511v0l1.035-0.144c0.035-0.48 0.052-1.035 0.052-1.664v0-7.507l-1.074-0.131c-0.035-0.131-0.035-0.297 0-0.498v0c0.603-0.044 1.354-0.135 2.253-0.275v0c0.079 0.087 0.122 0.175 0.131 0.262v0c-0.044 0.227-0.066 0.935-0.065 2.122zM217.368 167.93v0h-4.115c-0.079 2.227 0.59 3.341 2.005 3.341v0c0.603 0 1.219-0.266 1.847-0.799v0c0.131 0.079 0.231 0.214 0.302 0.406v0c-0.603 0.673-1.367 1.009-2.293 1.009v0c-2.131 0-3.197-1.253-3.197-3.76v0c0-1.188 0.314-2.112 0.943-2.773 0.629-0.659 1.363-0.988 2.202-0.988v0c0.917 0 1.577 0.319 1.978 0.957 0.402 0.638 0.603 1.467 0.603 2.489v0c-0.087 0.07-0.179 0.109-0.275 0.118zM215.035 164.89v0c-0.454 0-0.84 0.236-1.158 0.708-0.32 0.472-0.514 1.074-0.584 1.808v0h1.624c0.646 0 1.109-0.039 1.389-0.118v0c0-0.716-0.109-1.295-0.327-1.737-0.218-0.44-0.533-0.66-0.944-0.661zM219.778 171.769v0c0.079 0.035 0.144 0.109 0.197 0.223v0c-0.288 0.236-0.432 0.59-0.432 1.061v0c0 0.419 0.192 0.756 0.576 1.009 0.384 0.253 0.882 0.38 1.494 0.38v0c0.629 0 1.153-0.115 1.572-0.346 0.419-0.232 0.629-0.558 0.629-0.977v0c0-0.454-0.083-0.788-0.249-1.001-0.166-0.215-0.498-0.344-0.996-0.388v0l-2.45-0.223c-0.271-0.035-0.495-0.177-0.673-0.427-0.18-0.248-0.27-0.49-0.27-0.726v0l0.877-1.454c-0.402-0.227-0.706-0.528-0.911-0.904-0.204-0.376-0.307-0.76-0.307-1.153v0c0-0.742 0.275-1.341 0.825-1.795 0.55-0.454 1.184-0.681 1.9-0.682v0c0.69 0 1.297 0.183 1.821 0.551v0c0.044-1.197 0.489-1.817 1.337-1.861v0c0.227 0.052 0.341 0.24 0.341 0.563v0c0 0.175-0.017 0.367-0.053 0.577v0c-0.341 0.026-0.62 0.137-0.838 0.333-0.218 0.197-0.376 0.423-0.472 0.676v0c0.437 0.437 0.655 0.983 0.655 1.638v0c0 0.69-0.28 1.264-0.839 1.721-0.559 0.459-1.21 0.689-1.952 0.689v0c-0.393 0-0.747-0.052-1.061-0.157v0l-0.446 1.166 3.263 0.328c0.507 0.061 0.894 0.246 1.161 0.555 0.266 0.311 0.398 0.715 0.398 1.214v0c0 0.873-0.314 1.544-0.943 2.012-0.629 0.466-1.481 0.7-2.555 0.7v0c-0.891 0-1.585-0.162-2.083-0.485-0.498-0.323-0.747-0.756-0.747-1.297v0c0-0.367 0.118-0.692 0.353-0.975 0.236-0.285 0.528-0.466 0.878-0.545zM220.014 166.843v0c0 0.507 0.141 0.939 0.425 1.297 0.285 0.358 0.663 0.537 1.134 0.537v0c0.463 0 0.843-0.177 1.14-0.532 0.297-0.353 0.445-0.787 0.446-1.302v0c0-0.559-0.146-1.025-0.438-1.397-0.293-0.37-0.676-0.556-1.148-0.556v0c-0.445 0-0.817 0.188-1.113 0.564-0.297 0.376-0.445 0.839-0.446 1.389zM227.862 164.628v0l-0.026 1.35c0.218-0.402 0.521-0.771 0.91-1.109 0.39-0.335 0.759-0.503 1.108-0.503v0c0.271 0 0.511 0.031 0.721 0.092v0c0.07 0.114 0.105 0.262 0.104 0.446v0c0 0.288-0.061 0.577-0.183 0.864v0c-0.314-0.087-0.616-0.131-0.904-0.131v0c-0.716 0-1.306 0.349-1.769 1.048v0l-0.026 2.293v1.979l1.454 0.196c0.035 0.14 0.035 0.314 0 0.524v0c-0.55-0.026-1.179-0.039-1.886-0.039v0c-0.533 0-1.166 0.009-1.9 0.026v0c-0.052-0.166-0.052-0.336 0-0.511v0l1.035-0.144c0.035-0.48 0.052-1.035 0.052-1.664v0-3.59c0-0.175-0.013-0.336-0.039-0.485v0l-1.035-0.131c-0.035-0.131-0.035-0.297 0-0.498v0c0.603-0.044 1.354-0.135 2.253-0.275v0c0.079 0.087 0.122 0.175 0.131 0.262zM232.54 169.882v0c0 0.454 0.083 0.775 0.249 0.962 0.166 0.189 0.428 0.283 0.786 0.283v0c0.262 0 0.552-0.081 0.87-0.244 0.32-0.161 0.615-0.394 0.886-0.699v0-2.044c-0.9 0.052-1.59 0.211-2.07 0.477-0.48 0.267-0.721 0.689-0.721 1.265zM235.331 167.668v0-0.668c0-0.742-0.086-1.282-0.257-1.62-0.169-0.335-0.451-0.503-0.844-0.503v0c-0.402 0-0.725 0.128-0.969 0.386-0.245 0.259-0.411 0.698-0.498 1.318v0c-0.28 0.061-0.485 0.092-0.616 0.091v0c-0.341 0-0.542-0.122-0.603-0.367v0c0-0.594 0.258-1.066 0.773-1.415 0.515-0.349 1.157-0.524 1.926-0.524v0c0.847 0 1.447 0.172 1.8 0.517 0.355 0.346 0.532 0.964 0.532 1.855v0 3.695c0 0.218 0.013 0.406 0.04 0.563v0l1.035 0.131c0.035 0.131 0.035 0.297 0 0.498v0c-0.62 0.026-1.28 0.087-1.979 0.183v0c-0.07-0.07-0.114-0.157-0.131-0.262v0l-0.065-0.904c-0.725 0.83-1.533 1.245-2.424 1.245v0c-0.55 0-0.981-0.157-1.292-0.472-0.309-0.314-0.464-0.738-0.464-1.271v0c0-0.804 0.364-1.411 1.093-1.821 0.73-0.411 1.711-0.629 2.943-0.655zM247.883 169.345v-2.398c0-1.214-0.389-1.821-1.166-1.821v0c-0.664 0-1.293 0.459-1.887 1.376v0 4.455l1.061 0.196c0.035 0.14 0.035 0.314 0 0.524v0c-0.55-0.026-1.109-0.039-1.677-0.039v0c-0.402 0-0.97 0.009-1.703 0.026v0c-0.052-0.166-0.052-0.336 0-0.511v0l1.035-0.144c0.035-0.48 0.052-1.035 0.052-1.664v0-2.398c0-1.214-0.389-1.821-1.166-1.821v0c-0.393 0-0.738 0.12-1.035 0.359-0.297 0.241-0.603 0.615-0.917 1.122v0 4.35l1.061 0.196c0.035 0.14 0.035 0.314 0 0.524v0c-0.55-0.026-1.109-0.039-1.677-0.039v0c-0.402 0-0.97 0.009-1.703 0.026v0c-0.052-0.166-0.052-0.336 0-0.511v0l1.035-0.144c0.035-0.48 0.052-1.035 0.052-1.664v0-3.59c0-0.175-0.013-0.336-0.039-0.485v0l-1.035-0.131c-0.035-0.131-0.035-0.297 0-0.498v0c0.585-0.044 1.332-0.135 2.24-0.275v0c0.079 0.087 0.122 0.175 0.131 0.262v0c-0.044 0.227-0.066 0.616-0.065 1.166v0c0.69-0.952 1.467-1.428 2.332-1.428v0c0.454 0 0.869 0.115 1.245 0.346 0.376 0.232 0.616 0.589 0.72 1.069v0c0.699-0.943 1.472-1.415 2.32-1.415v0c0.533 0 1.002 0.157 1.407 0.472 0.407 0.314 0.611 0.799 0.61 1.454v0 4.665l1.062 0.196c0.035 0.14 0.035 0.314 0 0.524v0c-0.55-0.026-1.109-0.039-1.678-0.039v0c-0.402 0-0.97 0.009-1.703 0.026v0c-0.052-0.166-0.052-0.336 0-0.511v0l1.035-0.144c0.035-0.48 0.052-1.035 0.053-1.664zM251.119 173.538v0c-0.192-0.026-0.323-0.153-0.393-0.38v0c0.585-0.323 0.97-0.777 1.153-1.363v0h-0.039c-0.227 0-0.422-0.081-0.585-0.243-0.161-0.161-0.241-0.355-0.241-0.582v0c0-0.227 0.079-0.417 0.236-0.569 0.157-0.154 0.349-0.231 0.576-0.23v0c0.236 0 0.434 0.08 0.595 0.241 0.162 0.162 0.244 0.37 0.244 0.623v0c0 0.568-0.135 1.042-0.406 1.423-0.271 0.379-0.651 0.739-1.14 1.08zM258.024 170.171v0c0.236 0 0.435 0.077 0.597 0.23 0.161 0.152 0.241 0.342 0.241 0.569v0c0 0.227-0.08 0.421-0.241 0.582-0.162 0.162-0.357 0.244-0.584 0.243v0c-0.227 0-0.421-0.081-0.582-0.243-0.162-0.161-0.244-0.355-0.243-0.582v0c0-0.227 0.079-0.417 0.235-0.569 0.157-0.154 0.349-0.231 0.577-0.23zM260.985 170.171v0c0.236 0 0.435 0.077 0.597 0.23 0.161 0.152 0.241 0.342 0.241 0.569v0c0 0.227-0.08 0.421-0.241 0.582-0.162 0.162-0.357 0.244-0.584 0.243v0c-0.227 0-0.421-0.081-0.582-0.243-0.162-0.161-0.244-0.355-0.243-0.582v0c0-0.227 0.079-0.417 0.235-0.569 0.157-0.154 0.349-0.231 0.577-0.23zM263.946 170.171v0c0.236 0 0.434 0.077 0.595 0.23 0.162 0.152 0.244 0.342 0.244 0.569v0c0 0.227-0.081 0.421-0.244 0.582-0.161 0.162-0.355 0.244-0.582 0.243v0c-0.227 0-0.422-0.081-0.584-0.243-0.161-0.161-0.241-0.355-0.241-0.582v0c0-0.227 0.079-0.417 0.236-0.569 0.157-0.154 0.349-0.231 0.576-0.23zM266.907 170.171v0c0.236 0 0.434 0.077 0.595 0.23 0.162 0.152 0.244 0.342 0.244 0.569v0c0 0.227-0.081 0.421-0.244 0.582-0.161 0.162-0.355 0.244-0.582 0.243v0c-0.227 0-0.422-0.081-0.584-0.243-0.161-0.161-0.241-0.355-0.241-0.582v0c0-0.227 0.079-0.417 0.236-0.569 0.157-0.154 0.349-0.231 0.576-0.23z" fill="#0d74e1" fill-rule="nonzero" stroke="none" stroke-width="1" stroke-linecap="butt" stroke-linejoin="miter" stroke-miterlimit="10" stroke-dasharray="" stroke-dashoffset="0" font-family="none" font-weight="none" font-size="none" text-anchor="none" style="mix-blend-mode: normal" data-fill-palette-color="secondary" id="text-1"></path></g></g><g transform="matrix(1,0,0,1,29.33176499999999,31.59251647716069)"><svg viewBox="0 0 316.416 34.313927045678604" height="34.313927045678604" width="316.416"><g><svg viewBox="0 0 316.416 34.313927045678604" height="34.313927045678604" width="316.416"><g><svg viewBox="0 0 316.416 34.313927045678604" height="34.313927045678604" width="316.416"><g><svg viewBox="0 0 316.416 34.313927045678604" height="34.313927045678604" width="316.416"><g id="textblocktransform"><svg viewBox="0 0 316.416 34.313927045678604" height="34.313927045678604" width="316.416" id="textblock"><g><svg viewBox="0 0 316.416 34.313927045678604" height="34.313927045678604" width="316.416"><g transform="matrix(1,0,0,1,0,0)"><svg width="316.416" viewBox="2.93 -31.74 297.13 32.230000000000004" height="34.313927045678604" data-palette-color="#0a71de"><path d="M23.73-7.67L23.73-7.67Q23.73-12.01 19.04-14.65L19.04-14.65Q18.12-15.14 13.33-17.24L13.33-17.24Q8.98-19.09 7.86-21.04L7.86-21.04Q7.28-22.12 7.28-23.34L7.28-23.34Q7.28-26.61 10.45-27.88L10.45-27.88Q11.82-28.42 13.48-28.42L13.48-28.42Q17.58-28.42 19.73-25.63L19.73-25.63Q21.14-23.73 21.09-21L21.09-21 22.56-21 22.56-29.54Q21.39-29.54 21.19-28.81L21.19-28.81Q21.09-28.47 21.09-27.88L21.09-27.88Q17.63-29.79 13.28-29.79L13.28-29.79Q8.01-29.79 5.08-26.86L5.08-26.86Q3.13-24.8 3.13-22.07L3.13-22.07Q3.13-17.97 7.71-15.38L7.71-15.38Q8.54-14.94 13.28-12.89L13.28-12.89Q17.68-10.94 18.85-8.94L18.85-8.94Q19.48-7.81 19.48-6.49L19.48-6.49Q19.48-3.08 16.16-1.56L16.16-1.56Q14.6-0.88 12.7-0.88L12.7-0.88Q5.22-0.98 4.39-10.01L4.39-10.01 2.93-10.01 2.93 0.1Q4.1 0.1 4.3-0.59L4.3-0.59Q4.39-0.98 4.39-2L4.39-2Q8.15 0.49 12.94 0.49L12.94 0.49Q18.55 0.49 21.63-2.54L21.63-2.54Q23.73-4.69 23.73-7.67ZM32.27-10.4L32.27-10.4Q32.27-17.97 36.42-19.63L36.42-19.63Q37.5-20.02 38.67-20.02L38.67-20.02Q44.09-20.02 44.97-13.18L44.97-13.18Q45.11-12.01 45.11-10.6L45.11-10.6Q45.11-2.39 40.62-0.98L40.62-0.98Q39.74-0.73 38.82-0.73L38.82-0.73Q33.88-0.73 32.61-6.59L32.61-6.59Q32.27-8.3 32.27-10.4ZM38.82-21.24L38.82-21.24Q34.13-21.24 31-18.02L31-18.02Q28.12-15.04 28.12-10.6L28.12-10.6Q28.12-4.44 32.61-1.37L32.61-1.37Q35.35 0.49 38.67 0.49L38.67 0.49Q43.36 0.49 46.43-2.83L46.43-2.83Q49.27-5.86 49.27-10.4L49.27-10.4Q49.27-16.55 44.72-19.53L44.72-19.53Q42.04-21.24 38.82-21.24ZM53.17-10.16L53.17-10.16Q53.17-4.25 57.51-1.32L57.51-1.32Q60.2 0.49 63.62 0.49L63.62 0.49Q68.7 0.49 71.28-3.08L71.28-3.08Q71.87-3.91 72.21-4.74L72.21-4.74 70.94-5.18Q69.14-1.32 64.99-0.93L64.99-0.93Q64.59-0.88 64.2-0.88L64.2-0.88Q60.74-0.88 58.78-4.35L58.78-4.35Q57.32-6.98 57.32-10.6L57.32-10.6Q57.32-16.99 60.69-19.14L60.69-19.14Q62.1-20.02 63.81-20.02L63.81-20.02Q66.45-20.02 66.99-17.97L66.99-17.97Q67.08-17.58 67.23-16.75L67.23-16.75Q67.52-14.79 68.31-14.31L68.31-14.31Q68.79-14.06 69.38-14.01L69.38-14.01Q71.04-13.92 71.48-15.38L71.48-15.38Q71.58-15.72 71.58-16.02L71.58-16.02Q71.58-18.51 68.4-20.12L68.4-20.12Q66.16-21.24 63.52-21.24L63.52-21.24Q56.98-21.24 54.39-15.92L54.39-15.92Q53.17-13.38 53.17-10.16ZM83.93-1.22L83.93-1.22 81.49-1.22 81.49-20.75 73.92-20.75 73.92-19.53 77.82-19.53 77.82-4.15Q77.82-1.9 76.31-1.42L76.31-1.42Q75.58-1.22 73.92-1.22L73.92-1.22 73.92 0 85.15 0Q85.15-1.07 84.42-1.17L84.42-1.17Q84.17-1.22 83.93-1.22ZM82.07-27.88L82.07-27.88Q82.07-29.59 80.56-30.32L80.56-30.32Q79.97-30.57 79.44-30.57L79.44-30.57Q77.73-30.57 76.99-29L76.99-29Q76.75-28.47 76.75-27.88L76.75-27.88Q76.75-26.07 78.36-25.39L78.36-25.39Q78.9-25.2 79.44-25.2L79.44-25.2Q81.14-25.2 81.83-26.76L81.83-26.76Q82.07-27.29 82.07-27.88ZM105.7 0.49L105.7 0.49Q109.46 0.49 109.85-4.05L109.85-4.05Q109.9-4.35 109.9-4.59L109.9-4.59 108.63-4.64Q108.29-1.07 106.73-1.03L106.73-1.03Q105.46-1.12 105.41-3.56L105.41-3.56 105.41-13.87Q105.41-20.85 98.43-21.24L98.43-21.24Q97.99-21.24 97.55-21.24L97.55-21.24Q92.08-21.24 90.22-18.7L90.22-18.7Q89.64-17.87 89.64-17.04L89.64-17.04Q89.64-15.53 91.05-15.28L91.05-15.28Q91.3-15.23 91.54-15.23L91.54-15.23Q92.67-15.23 93.2-16.65L93.2-16.65Q93.89-18.46 94.13-18.8L94.13-18.8Q95.06-20.02 97.01-20.02L97.01-20.02Q101.6-19.73 101.75-14.99L101.75-14.99 101.75-11.91Q90.27-11.91 88.61-7.13L88.61-7.13Q88.32-6.2 88.32-5.13L88.32-5.13Q88.32-1.42 91.59-0.05L91.59-0.05Q92.91 0.49 94.37 0.49L94.37 0.49Q97.94 0.49 100.38-1.95L100.38-1.95Q101.26-2.88 101.7-3.91L101.7-3.91Q102.28 0.44 105.7 0.49ZM95.99-1.46L95.99-1.46Q93.01-1.46 92.32-4.44L92.32-4.44Q92.18-5.13 92.18-5.96L92.18-5.96Q92.18-9.23 95.94-10.11L95.94-10.11Q97.94-10.55 101.75-10.6L101.75-10.6 101.75-6.69Q101.02-3.32 98.18-1.95L98.18-1.95Q97.06-1.46 95.99-1.46ZM121.72-1.22L121.72-1.22 119.08-1.22 119.08-31.74 111.76-31.74 111.76-30.52 115.42-30.52 115.42-4.15Q115.42-1.9 114.15-1.46L114.15-1.46Q113.42-1.22 111.76-1.22L111.76-1.22 111.76 0 122.94 0Q122.94-1.07 122.2-1.17L122.2-1.17Q122.01-1.22 121.72-1.22ZM157.5-7.67L157.5-7.67Q157.5-12.01 152.81-14.65L152.81-14.65Q151.89-15.14 147.1-17.24L147.1-17.24Q142.76-19.09 141.63-21.04L141.63-21.04Q141.05-22.12 141.05-23.34L141.05-23.34Q141.05-26.61 144.22-27.88L144.22-27.88Q145.59-28.42 147.25-28.42L147.25-28.42Q151.35-28.42 153.5-25.63L153.5-25.63Q154.91-23.73 154.87-21L154.87-21 156.33-21 156.33-29.54Q155.16-29.54 154.96-28.81L154.96-28.81Q154.87-28.47 154.87-27.88L154.87-27.88Q151.4-29.79 147.05-29.79L147.05-29.79Q141.78-29.79 138.85-26.86L138.85-26.86Q136.9-24.8 136.9-22.07L136.9-22.07Q136.9-17.97 141.49-15.38L141.49-15.38Q142.32-14.94 147.05-12.89L147.05-12.89Q151.45-10.94 152.62-8.94L152.62-8.94Q153.25-7.81 153.25-6.49L153.25-6.49Q153.25-3.08 149.93-1.56L149.93-1.56Q148.37-0.88 146.47-0.88L146.47-0.88Q139-0.98 138.17-10.01L138.17-10.01 136.7-10.01 136.7 0.1Q137.87 0.1 138.07-0.59L138.07-0.59Q138.17-0.98 138.17-2L138.17-2Q141.93 0.49 146.71 0.49L146.71 0.49Q152.33 0.49 155.4-2.54L155.4-2.54Q157.5-4.69 157.5-7.67ZM172.1-20.02L172.1-20.02Q175.52-20.02 176.64-17.14L176.64-17.14Q177.03-16.21 177.03-15.14L177.03-15.14Q177.03-12.7 174.69-12.16L174.69-12.16Q173.47-11.91 171.22-11.96L171.22-11.96 166.04-12.11Q166.29-17.72 169.71-19.43L169.71-19.43Q170.83-20.02 172.1-20.02ZM180.6-4.69L180.6-4.69 179.37-5.13Q177.67-1.42 173.86-0.93L173.86-0.93Q173.37-0.88 172.93-0.88L172.93-0.88Q167.8-0.88 166.48-6.98L166.48-6.98Q166.09-8.69 166.04-10.74L166.04-10.74 171.9-10.64Q177.86-10.55 179.57-11.77L179.57-11.77Q180.89-12.74 180.89-14.55L180.89-14.55Q180.89-17.87 177.52-19.82L177.52-19.82Q175.13-21.24 172-21.24L172-21.24Q165.9-21.24 163.26-16.16L163.26-16.16Q161.89-13.53 161.89-10.21L161.89-10.21Q161.89-4.15 166.24-1.22L166.24-1.22Q168.83 0.49 172.15 0.49L172.15 0.49Q177.42 0.49 179.91-3.32L179.91-3.32Q180.3-4 180.6-4.69ZM195-1.22L195-1.22 191.48-1.22 191.48-10.94Q191.48-15.38 194.22-18.07L194.22-18.07Q195.29-19.09 196.02-19.14L196.02-19.14Q196.85-19.14 197.54-17.92L197.54-17.92Q198.32-16.55 199-16.36L199-16.36Q199.29-16.26 199.59-16.26L199.59-16.26Q201.05-16.26 201.44-17.68L201.44-17.68Q201.54-17.97 201.54-18.26L201.54-18.26Q201.54-20.46 199.29-20.95L199.29-20.95Q198.81-21.04 198.37-21.04L198.37-21.04Q195.44-21.04 193.14-18.55L193.14-18.55Q192.07-17.38 191.43-15.92L191.43-15.92 191.24-20.75 184.16-20.75 184.16-19.53 187.82-19.53 187.82-4.15Q187.82-1.9 186.55-1.46L186.55-1.46Q185.82-1.22 184.16-1.22L184.16-1.22 184.16 0 196.22 0Q196.22-1.07 195.49-1.17L195.49-1.17Q195.29-1.22 195-1.22ZM207.98-19.53L211.4-19.53 211.4-20.75 201.93-20.75 201.93-19.53 204.13-19.53 210.08-3.17Q211.06-0.44 212.23 0L212.23 0Q212.82 0.24 213.7 0.24L213.7 0.24 214.33 0.24 221.22-17.82Q221.8-19.34 222.63-19.48L222.63-19.48Q222.88-19.53 223.07-19.53L223.07-19.53Q224.14-19.53 224.24-20.26L224.24-20.26Q224.29-20.51 224.29-20.75L224.29-20.75 216.77-20.75 216.77-19.53 220.43-19.53 214.23-2.88 207.98-19.53ZM235.91-1.22L235.91-1.22 233.47-1.22 233.47-20.75 225.9-20.75 225.9-19.53 229.81-19.53 229.81-4.15Q229.81-1.9 228.29-1.42L228.29-1.42Q227.56-1.22 225.9-1.22L225.9-1.22 225.9 0 237.13 0Q237.13-1.07 236.4-1.17L236.4-1.17Q236.15-1.22 235.91-1.22ZM234.05-27.88L234.05-27.88Q234.05-29.59 232.54-30.32L232.54-30.32Q231.95-30.57 231.42-30.57L231.42-30.57Q229.71-30.57 228.98-29L228.98-29Q228.73-28.47 228.73-27.88L228.73-27.88Q228.73-26.07 230.34-25.39L230.34-25.39Q230.88-25.2 231.42-25.2L231.42-25.2Q233.13-25.2 233.81-26.76L233.81-26.76Q234.05-27.29 234.05-27.88ZM240.55-10.16L240.55-10.16Q240.55-4.25 244.89-1.32L244.89-1.32Q247.58 0.49 251 0.49L251 0.49Q256.07 0.49 258.66-3.08L258.66-3.08Q259.25-3.91 259.59-4.74L259.59-4.74 258.32-5.18Q256.51-1.32 252.36-0.93L252.36-0.93Q251.97-0.88 251.58-0.88L251.58-0.88Q248.11-0.88 246.16-4.35L246.16-4.35Q244.7-6.98 244.7-10.6L244.7-10.6Q244.7-16.99 248.07-19.14L248.07-19.14Q249.48-20.02 251.19-20.02L251.19-20.02Q253.83-20.02 254.36-17.97L254.36-17.97Q254.46-17.58 254.61-16.75L254.61-16.75Q254.9-14.79 255.68-14.31L255.68-14.31Q256.17-14.06 256.76-14.01L256.76-14.01Q258.42-13.92 258.86-15.38L258.86-15.38Q258.95-15.72 258.95-16.02L258.95-16.02Q258.95-18.51 255.78-20.12L255.78-20.12Q253.53-21.24 250.9-21.24L250.9-21.24Q244.35-21.24 241.77-15.92L241.77-15.92Q240.55-13.38 240.55-10.16ZM271.99-20.02L271.99-20.02Q275.41-20.02 276.53-17.14L276.53-17.14Q276.92-16.21 276.92-15.14L276.92-15.14Q276.92-12.7 274.58-12.16L274.58-12.16Q273.36-11.91 271.11-11.96L271.11-11.96 265.93-12.11Q266.18-17.72 269.6-19.43L269.6-19.43Q270.72-20.02 271.99-20.02ZM280.49-4.69L280.49-4.69 279.26-5.13Q277.56-1.42 273.75-0.93L273.75-0.93Q273.26-0.88 272.82-0.88L272.82-0.88Q267.69-0.88 266.37-6.98L266.37-6.98Q265.98-8.69 265.93-10.74L265.93-10.74 271.79-10.64Q277.75-10.55 279.46-11.77L279.46-11.77Q280.78-12.74 280.78-14.55L280.78-14.55Q280.78-17.87 277.41-19.82L277.41-19.82Q275.02-21.24 271.89-21.24L271.89-21.24Q265.79-21.24 263.15-16.16L263.15-16.16Q261.78-13.53 261.78-10.21L261.78-10.21Q261.78-4.15 266.13-1.22L266.13-1.22Q268.72 0.49 272.04 0.49L272.04 0.49Q277.31 0.49 279.8-3.32L279.8-3.32Q280.19-4 280.49-4.69ZM291.76-0.83L291.76-0.83Q295.13-0.83 296.3-2.88L296.3-2.88Q296.74-3.61 296.74-4.49L296.74-4.49Q296.74-6.54 293.76-8.01L293.76-8.01Q293.13-8.35 291.66-8.98L291.66-8.98Q287.66-10.64 286.34-12.11L286.34-12.11Q284.93-13.72 284.93-15.87L284.93-15.87Q284.93-19.24 288.64-20.61L288.64-20.61Q290.35-21.24 292.35-21.24L292.35-21.24Q295.57-21.24 297.91-19.87L297.91-19.87Q297.91-21.29 298.6-21.48L298.6-21.48Q298.89-21.53 299.23-21.53L299.23-21.53 299.23-15.43 297.96-15.43Q297.87-19.92 292.98-19.97L292.98-19.97Q289.32-19.97 288.44-17.82L288.44-17.82Q288.2-17.24 288.2-16.6L288.2-16.6Q288.2-14.5 291.22-13.04L291.22-13.04Q291.91-12.7 293.37-12.11L293.37-12.11Q297.33-10.5 298.65-9.03L298.65-9.03Q300.06-7.47 300.06-5.32L300.06-5.32Q300.06-1.37 295.86-0.05L295.86-0.05Q294.25 0.49 292.35 0.49L292.35 0.49Q288.83 0.44 286.24-1.27L286.24-1.27Q286.24 0 285.61 0.2L285.61 0.2Q285.32 0.24 284.93 0.24L284.93 0.24 284.93-7.18 286.29-7.18Q286.39-0.88 291.76-0.83Z" opacity="1" transform="matrix(1,0,0,1,0,0)" fill="#0a71de" class="wordmark-text-0" data-fill-palette-color="primary" id="text-0"></path></svg></g></svg></g></svg></g></svg></g><g></g></svg></g></svg></g></svg></g></svg></g><defs></defs></svg><rect width="375.07953" height="97.49895999999998" fill="none" stroke="none" visibility="hidden"></rect></g></svg></g></svg>